<mxfile host="app.diagrams.net" modified="2021-02-06T13:49:05.421Z" agent="5.0 (Macintosh; Intel Mac OS X 11_1_0) AppleWebKit/537.36 (KHTML, like Gecko) Chrome/88.0.4324.146 Safari/537.36" etag="TZH0WFZM8SFnlTbcvXfo" version="14.2.9" type="github">
  <diagram id="5fvuw2dGT4YF_XITEjJB" name="Page-1">
    <mxGraphModel dx="889" dy="589" grid="1" gridSize="10" guides="1" tooltips="1" connect="1" arrows="1" fold="1" page="1" pageScale="1" pageWidth="827" pageHeight="1169" math="0" shadow="0">
      <root>
        <mxCell id="0" />
        <mxCell id="1" parent="0" />
        <mxCell id="fyWGlcX98oZRPh7EGz9q-1" value="server" style="shape=umlLifeline;perimeter=lifelinePerimeter;whiteSpace=wrap;html=1;container=1;collapsible=0;recursiveResize=0;outlineConnect=0;rounded=1;shadow=0;comic=0;labelBackgroundColor=none;strokeWidth=1;fontFamily=Verdana;fontSize=12;align=center;" parent="1" vertex="1">
          <mxGeometry x="290" y="80" width="100" height="650" as="geometry" />
        </mxCell>
        <mxCell id="fyWGlcX98oZRPh7EGz9q-2" value="" style="html=1;points=[];perimeter=orthogonalPerimeter;rounded=0;shadow=0;comic=0;labelBackgroundColor=none;strokeWidth=1;fontFamily=Verdana;fontSize=12;align=center;" parent="fyWGlcX98oZRPh7EGz9q-1" vertex="1">
          <mxGeometry x="45" y="100" width="10" height="50" as="geometry" />
        </mxCell>
        <mxCell id="fyWGlcX98oZRPh7EGz9q-5" value="" style="html=1;points=[];perimeter=orthogonalPerimeter;rounded=0;shadow=0;comic=0;labelBackgroundColor=none;strokeWidth=1;fontFamily=Verdana;fontSize=12;align=center;" parent="fyWGlcX98oZRPh7EGz9q-1" vertex="1">
          <mxGeometry x="45" y="270" width="10" height="90" as="geometry" />
        </mxCell>
        <mxCell id="fyWGlcX98oZRPh7EGz9q-24" value="" style="html=1;points=[];perimeter=orthogonalPerimeter;rounded=0;shadow=0;comic=0;labelBackgroundColor=none;strokeWidth=1;fontFamily=Verdana;fontSize=12;align=center;" parent="fyWGlcX98oZRPh7EGz9q-1" vertex="1">
          <mxGeometry x="45" y="400" width="10" height="60" as="geometry" />
        </mxCell>
        <mxCell id="fyWGlcX98oZRPh7EGz9q-3" value="用户B&lt;br&gt;client" style="shape=umlLifeline;perimeter=lifelinePerimeter;whiteSpace=wrap;html=1;container=1;collapsible=0;recursiveResize=0;outlineConnect=0;rounded=1;shadow=0;comic=0;labelBackgroundColor=none;strokeWidth=1;fontFamily=Verdana;fontSize=12;align=center;" parent="1" vertex="1">
          <mxGeometry x="590" y="80" width="100" height="610" as="geometry" />
        </mxCell>
        <mxCell id="fyWGlcX98oZRPh7EGz9q-4" value="" style="html=1;points=[];perimeter=orthogonalPerimeter;rounded=0;shadow=0;comic=0;labelBackgroundColor=none;strokeWidth=1;fontFamily=Verdana;fontSize=12;align=center;" parent="fyWGlcX98oZRPh7EGz9q-3" vertex="1">
          <mxGeometry x="45" y="400" width="10" height="60" as="geometry" />
        </mxCell>
        <mxCell id="fyWGlcX98oZRPh7EGz9q-7" value="用户A&lt;br&gt;client" style="shape=umlLifeline;perimeter=lifelinePerimeter;whiteSpace=wrap;html=1;container=1;collapsible=0;recursiveResize=0;outlineConnect=0;rounded=1;shadow=0;comic=0;labelBackgroundColor=none;strokeWidth=1;fontFamily=Verdana;fontSize=12;align=center;" parent="1" vertex="1">
          <mxGeometry y="80" width="100" height="580" as="geometry" />
        </mxCell>
        <mxCell id="fyWGlcX98oZRPh7EGz9q-8" value="" style="html=1;points=[];perimeter=orthogonalPerimeter;rounded=0;shadow=0;comic=0;labelBackgroundColor=none;strokeWidth=1;fontFamily=Verdana;fontSize=12;align=center;" parent="fyWGlcX98oZRPh7EGz9q-7" vertex="1">
          <mxGeometry x="45" y="100" width="10" height="50" as="geometry" />
        </mxCell>
        <mxCell id="fyWGlcX98oZRPh7EGz9q-9" value="" style="html=1;points=[];perimeter=orthogonalPerimeter;rounded=0;shadow=0;comic=0;labelBackgroundColor=none;strokeWidth=1;fontFamily=Verdana;fontSize=12;align=center;" parent="fyWGlcX98oZRPh7EGz9q-7" vertex="1">
          <mxGeometry x="45" y="190" width="10" height="170" as="geometry" />
        </mxCell>
        <mxCell id="fyWGlcX98oZRPh7EGz9q-11" value="查询好友是否在线" style="html=1;verticalAlign=bottom;endArrow=block;entryX=0;entryY=0;labelBackgroundColor=none;fontFamily=Verdana;fontSize=12;edgeStyle=elbowEdgeStyle;elbow=vertical;" parent="1" source="fyWGlcX98oZRPh7EGz9q-8" target="fyWGlcX98oZRPh7EGz9q-2" edge="1">
          <mxGeometry relative="1" as="geometry">
            <mxPoint x="220" y="190" as="sourcePoint" />
          </mxGeometry>
        </mxCell>
        <mxCell id="fyWGlcX98oZRPh7EGz9q-12" value="离线发送文件" style="text;html=1;align=center;verticalAlign=middle;resizable=0;points=[];autosize=1;" parent="1" vertex="1">
          <mxGeometry y="30" width="90" height="20" as="geometry" />
        </mxCell>
        <mxCell id="fyWGlcX98oZRPh7EGz9q-13" style="edgeStyle=orthogonalEdgeStyle;rounded=0;orthogonalLoop=1;jettySize=auto;html=1;dashed=1;" parent="1" source="fyWGlcX98oZRPh7EGz9q-2" edge="1">
          <mxGeometry relative="1" as="geometry">
            <mxPoint x="54" y="230" as="targetPoint" />
            <Array as="points">
              <mxPoint x="280" y="230" />
              <mxPoint x="280" y="230" />
            </Array>
          </mxGeometry>
        </mxCell>
        <mxCell id="fyWGlcX98oZRPh7EGz9q-14" value="返回好友通信公钥" style="text;html=1;align=center;verticalAlign=middle;resizable=0;points=[];autosize=1;" parent="1" vertex="1">
          <mxGeometry x="135" y="210" width="110" height="20" as="geometry" />
        </mxCell>
        <mxCell id="fyWGlcX98oZRPh7EGz9q-16" value="" style="endArrow=classic;html=1;" parent="1" edge="1">
          <mxGeometry width="50" height="50" relative="1" as="geometry">
            <mxPoint x="60" y="280" as="sourcePoint" />
            <mxPoint x="60" y="320" as="targetPoint" />
            <Array as="points">
              <mxPoint x="120" y="280" />
              <mxPoint x="120" y="320" />
            </Array>
          </mxGeometry>
        </mxCell>
        <mxCell id="fyWGlcX98oZRPh7EGz9q-17" value="使用好友公钥加密本地文件&lt;br&gt;记录文件发送记录" style="text;html=1;align=center;verticalAlign=middle;resizable=0;points=[];autosize=1;" parent="1" vertex="1">
          <mxGeometry x="130" y="280" width="160" height="30" as="geometry" />
        </mxCell>
        <mxCell id="fyWGlcX98oZRPh7EGz9q-18" value="" style="endArrow=classic;html=1;entryX=0.1;entryY=0.08;entryDx=0;entryDy=0;entryPerimeter=0;" parent="1" edge="1">
          <mxGeometry width="50" height="50" relative="1" as="geometry">
            <mxPoint x="55" y="349" as="sourcePoint" />
            <mxPoint x="336" y="349" as="targetPoint" />
          </mxGeometry>
        </mxCell>
        <mxCell id="fyWGlcX98oZRPh7EGz9q-19" value="&lt;div style=&quot;text-align: center&quot;&gt;&lt;span&gt;&lt;font face=&quot;verdana&quot;&gt;分片发送文件二进制数据&lt;/font&gt;&lt;/span&gt;&lt;/div&gt;" style="text;whiteSpace=wrap;html=1;" parent="1" vertex="1">
          <mxGeometry x="130" y="327" width="260" height="30" as="geometry" />
        </mxCell>
        <mxCell id="fyWGlcX98oZRPh7EGz9q-21" value="返回传输成功" style="html=1;verticalAlign=bottom;endArrow=block;labelBackgroundColor=none;fontFamily=Verdana;fontSize=12;dashed=1;entryX=0.9;entryY=0.982;entryDx=0;entryDy=0;entryPerimeter=0;exitX=0;exitY=0.97;exitDx=0;exitDy=0;exitPerimeter=0;" parent="1" source="fyWGlcX98oZRPh7EGz9q-5" target="fyWGlcX98oZRPh7EGz9q-9" edge="1">
          <mxGeometry relative="1" as="geometry">
            <mxPoint x="330" y="437" as="sourcePoint" />
            <mxPoint x="60" y="440" as="targetPoint" />
          </mxGeometry>
        </mxCell>
        <mxCell id="fyWGlcX98oZRPh7EGz9q-22" value="&amp;nbsp;服务器存储文件&lt;br&gt;记录好友接受文件记录" style="text;html=1;align=center;verticalAlign=middle;resizable=0;points=[];autosize=1;" parent="1" vertex="1">
          <mxGeometry x="400" y="370" width="140" height="30" as="geometry" />
        </mxCell>
        <mxCell id="fyWGlcX98oZRPh7EGz9q-23" value="" style="endArrow=classic;html=1;entryX=1.2;entryY=0.033;entryDx=0;entryDy=0;entryPerimeter=0;" parent="1" target="fyWGlcX98oZRPh7EGz9q-24" edge="1">
          <mxGeometry width="50" height="50" relative="1" as="geometry">
            <mxPoint x="634" y="482" as="sourcePoint" />
            <mxPoint x="350" y="481" as="targetPoint" />
          </mxGeometry>
        </mxCell>
        <mxCell id="fyWGlcX98oZRPh7EGz9q-25" value="登录" style="text;html=1;align=center;verticalAlign=middle;resizable=0;points=[];autosize=1;" parent="1" vertex="1">
          <mxGeometry x="450" y="460" width="40" height="20" as="geometry" />
        </mxCell>
        <mxCell id="fyWGlcX98oZRPh7EGz9q-26" value="" style="endArrow=classic;html=1;exitX=1;exitY=1;exitDx=0;exitDy=0;exitPerimeter=0;entryX=0.2;entryY=1;entryDx=0;entryDy=0;entryPerimeter=0;" parent="1" source="fyWGlcX98oZRPh7EGz9q-24" target="fyWGlcX98oZRPh7EGz9q-4" edge="1">
          <mxGeometry width="50" height="50" relative="1" as="geometry">
            <mxPoint x="645" y="540" as="sourcePoint" />
            <mxPoint x="630" y="540" as="targetPoint" />
          </mxGeometry>
        </mxCell>
        <mxCell id="fyWGlcX98oZRPh7EGz9q-27" value="返回离线文件消息，包含文件下载地址" style="text;html=1;align=center;verticalAlign=middle;resizable=0;points=[];autosize=1;" parent="1" vertex="1">
          <mxGeometry x="360" y="510" width="220" height="20" as="geometry" />
        </mxCell>
        <mxCell id="fyWGlcX98oZRPh7EGz9q-28" value="" style="html=1;points=[];perimeter=orthogonalPerimeter;rounded=0;shadow=0;comic=0;labelBackgroundColor=none;strokeWidth=1;fontFamily=Verdana;fontSize=12;align=center;" parent="1" vertex="1">
          <mxGeometry x="635" y="590" width="10" height="140" as="geometry" />
        </mxCell>
        <mxCell id="fyWGlcX98oZRPh7EGz9q-34" style="edgeStyle=orthogonalEdgeStyle;rounded=0;orthogonalLoop=1;jettySize=auto;html=1;" parent="1" source="fyWGlcX98oZRPh7EGz9q-29" target="fyWGlcX98oZRPh7EGz9q-28" edge="1">
          <mxGeometry relative="1" as="geometry">
            <mxPoint x="670" y="655" as="targetPoint" />
            <Array as="points">
              <mxPoint x="560" y="640" />
              <mxPoint x="560" y="640" />
            </Array>
          </mxGeometry>
        </mxCell>
        <mxCell id="fyWGlcX98oZRPh7EGz9q-29" value="" style="html=1;points=[];perimeter=orthogonalPerimeter;rounded=0;shadow=0;comic=0;labelBackgroundColor=none;strokeWidth=1;fontFamily=Verdana;fontSize=12;align=center;" parent="1" vertex="1">
          <mxGeometry x="335" y="580" width="10" height="60" as="geometry" />
        </mxCell>
        <mxCell id="fyWGlcX98oZRPh7EGz9q-30" value="" style="endArrow=classic;html=1;entryX=0.8;entryY=0;entryDx=0;entryDy=0;entryPerimeter=0;" parent="1" edge="1">
          <mxGeometry width="50" height="50" relative="1" as="geometry">
            <mxPoint x="636" y="591" as="sourcePoint" />
            <mxPoint x="345" y="590" as="targetPoint" />
          </mxGeometry>
        </mxCell>
        <mxCell id="fyWGlcX98oZRPh7EGz9q-31" value="" style="endArrow=classic;html=1;entryX=1.3;entryY=0.889;entryDx=0;entryDy=0;entryPerimeter=0;" parent="1" target="fyWGlcX98oZRPh7EGz9q-28" edge="1">
          <mxGeometry width="50" height="50" relative="1" as="geometry">
            <mxPoint x="648" y="670" as="sourcePoint" />
            <mxPoint x="951" y="624.5" as="targetPoint" />
            <Array as="points">
              <mxPoint x="680" y="670" />
              <mxPoint x="710" y="670" />
              <mxPoint x="710" y="713" />
            </Array>
          </mxGeometry>
        </mxCell>
        <mxCell id="fyWGlcX98oZRPh7EGz9q-32" value="文件下载请求" style="text;html=1;align=center;verticalAlign=middle;resizable=0;points=[];autosize=1;" parent="1" vertex="1">
          <mxGeometry x="445" y="560" width="90" height="20" as="geometry" />
        </mxCell>
        <mxCell id="fyWGlcX98oZRPh7EGz9q-33" value="文件私钥解密后存储" style="text;html=1;align=center;verticalAlign=middle;resizable=0;points=[];autosize=1;" parent="1" vertex="1">
          <mxGeometry x="720" y="680" width="120" height="20" as="geometry" />
        </mxCell>
        <mxCell id="fyWGlcX98oZRPh7EGz9q-35" value="返回文件数据" style="text;html=1;align=center;verticalAlign=middle;resizable=0;points=[];autosize=1;" parent="1" vertex="1">
          <mxGeometry x="440" y="620" width="90" height="20" as="geometry" />
        </mxCell>
        <mxCell id="xM5GEzvAiw6usLaFv5Z5-2" value="" style="endArrow=classic;html=1;entryX=1.3;entryY=0.889;entryDx=0;entryDy=0;entryPerimeter=0;" edge="1" parent="1">
          <mxGeometry width="50" height="50" relative="1" as="geometry">
            <mxPoint x="345" y="370" as="sourcePoint" />
            <mxPoint x="345" y="414.46000000000004" as="targetPoint" />
            <Array as="points">
              <mxPoint x="377" y="370" />
              <mxPoint x="407" y="370" />
              <mxPoint x="407" y="413" />
            </Array>
          </mxGeometry>
        </mxCell>
      </root>
    </mxGraphModel>
  </diagram>
</mxfile>
